<svg xmlns="http://www.w3.org/2000/svg" viewBox="0 0 106.08 93.66"><defs><style>.cls-1{fill:#13489e;}</style></defs><title>bikerack.jpg</title><g id="Layer_2" data-name="Layer 2"><g id="Layer_1-2" data-name="Layer 1"><path class="cls-1" d="M105.66,88.33l.42-65.7c0-4.21-6.45-6.46-8.39-2.27l-.26.57,8.39,2.27C106.68,11.43,96.87-.23,84.65,0,79,.11,73.57,3.15,69.94,7.32c-4.16,4.78-5.22,10-5.07,16.17.32,13.06-.48,26.15-.37,39.21.05,6.64-3.77,13.61-11.2,14.22-7.82.64-12.52-7.6-11.76-14.4.56-5-8-6.2-8.84-1.2l0,.26,8.84,1.2-.24-39.24c0-5.83-8.68-5.75-9,0l0,.81c-.32,5.88,8.37,5.63,9,0C42.52,12.71,33.13.83,21,1S-.56,12.56.26,24.19l8.39-2.27-.26-.57C6.46,17.15,0,19.42,0,23.62l.19,65.7c0,5.79,9,5.8,9,0L9,23.62.61,25.89l.26.57c1.85,4,8.69,2.06,8.39-2.27C8.79,17.44,13.61,10.11,21,10c7.61-.16,12,7.7,11.24,14.41h9l0-.81h-9l.24,39.24c0,4.89,8,6.35,8.84,1.2l0-.26-8.84-1.2c-1.32,11.77,8.4,24,20.76,23.4S73.58,74.2,73.49,62.67c-.1-13.06.7-26.15.37-39.21C73.7,16.89,76.89,9.33,84.65,9c7.58-.32,12.66,7.38,12.16,14.2-.32,4.34,6.53,6.3,8.39,2.27l.26-.57-8.39-2.27-.42,65.7c0,5.79,9,5.8,9,0Z"/></g></g></svg>