<svg xmlns="http://www.w3.org/2000/svg" viewBox="0 0 79.09 68.13"><defs><style>.cls-1,.cls-2{fill:#13489e;}.cls-2{stroke:#13489e;stroke-miterlimit:10;stroke-width:3px;}</style></defs><title>bikeracknew_1</title><g id="Layer_2" data-name="Layer 2"><g id="Layer_1-2" data-name="Layer 1"><path class="cls-1" d="M76.12,62.13l.27-45.18c0-4.19-6.5-6.5-8.39-2.27l-.17.39,8.39,2.27C76.76,7,66.81-3,56.29.83a16.4,16.4,0,0,0-10.06,11.3c-.67,2.68-.31,5.62-.34,8.38l-.2,21.89c0,3.44.21,6.72-2.9,9.08-5.28,4-9.87-1.9-9.41-7.12.45-5-8-6.21-8.84-1.2l0,.18,8.84,1.2-.16-27c0-5.82-8.69-5.76-9,0l0,.56c-.31,5.84,8.49,5.69,9,0C33.94,9.41,27.23.49,18,.63,9,.77,2.45,9.48,2.88,18l8.39-2.27-.17-.39c-1.88-4.24-8.4-1.91-8.39,2.27l.13,45.18c0,5.79,9,5.8,9,0L11.7,17.61,3.32,19.88l.17.39c1.83,4.12,8.6,2,8.39-2.27-.18-3.65,2-8.24,6.24-8.37,4.49-.13,6.38,4.82,6.05,8.49h9l0-.56h-9l.16,27c0,4.89,8,6.35,8.84,1.2l0-.18-8.84-1.2C23.44,55,33.65,65,44.28,60.84c8.58-3.39,10.35-11.11,10.42-19.35l.2-21.89c0-3.53-.47-7,2.83-9.45,5.08-3.7,9.74,2.3,9.48,7.18-.23,4.28,6.55,6.38,8.39,2.27l.17-.39-8.39-2.27-.27,45.18c0,5.79,9,5.8,9,0Z"/><ellipse class="cls-2" cx="7.2" cy="63.78" rx="2.83" ry="5.71" transform="translate(-56.87 67.69) rotate(-87.04)"/><ellipse class="cls-2" cx="71.89" cy="62.79" rx="2.83" ry="5.71" transform="translate(5.47 131.34) rotate(-87.04)"/></g></g></svg>