<svg xmlns="http://www.w3.org/2000/svg" viewBox="0 0 73.68 67.14"><defs><style>.cls-1{fill:#13489e;}</style></defs><title>bikeracknew</title><g id="Layer_2" data-name="Layer 2"><g id="Layer_1-2" data-name="Layer 1"><path class="cls-1" d="M73.41,62.13l.27-45.18c0-4.19-6.5-6.5-8.39-2.27l-.17.39,8.39,2.27C74.06,7,64.1-3,53.59.83a16.4,16.4,0,0,0-10.06,11.3c-.67,2.68-.31,5.62-.34,8.38L43,42.41c0,3.44.21,6.72-2.9,9.08-5.28,4-9.87-1.9-9.41-7.12.45-5-8-6.21-8.84-1.2l0,.18,8.84,1.2-.16-27c0-5.82-8.69-5.76-9,0l0,.56c-.31,5.84,8.49,5.69,9,0C31.24,9.41,24.52.49,15.32.63,6.32.77-.25,9.48.17,18l8.39-2.27-.17-.39C6.5,11.1,0,13.43,0,17.61L.13,62.79c0,5.79,9,5.8,9,0L9,17.61.61,19.88l.17.39c1.83,4.12,8.6,2,8.39-2.27-.18-3.65,2-8.24,6.24-8.37,4.49-.13,6.38,4.82,6.05,8.49h9l0-.56h-9l.16,27c0,4.89,8,6.35,8.84,1.2l0-.18-8.84-1.2C20.74,55,31,65,41.58,60.84,50.16,57.45,51.93,49.73,52,41.49l.2-21.89c0-3.53-.47-7,2.83-9.45,5.08-3.7,9.74,2.3,9.48,7.18-.23,4.28,6.55,6.38,8.39,2.27l.17-.39-8.39-2.27-.27,45.18c0,5.79,9,5.8,9,0Z"/></g></g></svg>